<svg width="24" height="24" viewBox="0 0 24 24" fill="none" xmlns="http://www.w3.org/2000/svg">
<path fill-rule="evenodd" clip-rule="evenodd" d="M20.5714 24H4.36364C3.20633 24 2.09642 23.5166 1.27808 22.6562C0.459739 21.7958 0 20.6289 0 19.4121V2.29672C0 0.898074 1.31657 0.0106474 2.47481 0.432732C2.64062 0.49303 2.8027 0.580855 2.9573 0.697518L3.17548 0.861371C3.70617 1.25727 4.34104 1.4694 4.99175 1.46822C5.64246 1.46705 6.27663 1.25263 6.80603 0.854817C7.54914 0.298785 8.43856 0 9.35065 0C10.2627 0 11.1522 0.298785 11.8953 0.854817C12.4247 1.25263 13.0588 1.46705 13.7095 1.46822C14.3603 1.4694 14.9951 1.25727 15.5258 0.861371L15.744 0.697518C16.982 -0.233165 18.7013 0.697518 18.7013 2.29672V12.2026H23.0649C23.3129 12.2026 23.5508 12.3062 23.7261 12.4906C23.9015 12.6749 24 12.925 24 13.1857V20.3952C24 21.3513 23.6388 22.2682 22.9958 22.9442C22.3528 23.6202 21.4807 24 20.5714 24ZM19.013 14.1688V20.3952C19.013 20.8298 19.1772 21.2466 19.4694 21.5539C19.7617 21.8611 20.1581 22.0338 20.5714 22.0338C20.9848 22.0338 21.3811 21.8611 21.6734 21.5539C21.9657 21.2466 22.1299 20.8298 22.1299 20.3952V14.1688H19.013ZM13.7143 8.59784C13.7143 8.3371 13.6158 8.08704 13.4404 7.90268C13.2651 7.71831 13.0272 7.61473 12.7792 7.61473H5.2987C5.05071 7.61473 4.81287 7.71831 4.63751 7.90268C4.46215 8.08704 4.36364 8.3371 4.36364 8.59784C4.36364 8.85858 4.46215 9.10864 4.63751 9.29301C4.81287 9.47738 5.05071 9.58096 5.2987 9.58096H12.7792C13.0272 9.58096 13.2651 9.47738 13.4404 9.29301C13.6158 9.10864 13.7143 8.85858 13.7143 8.59784ZM12.4675 12.5303C12.4675 12.2696 12.369 12.0195 12.1937 11.8351C12.0183 11.6508 11.7805 11.5472 11.5325 11.5472H5.2987C5.05071 11.5472 4.81287 11.6508 4.63751 11.8351C4.46215 12.0195 4.36364 12.2696 4.36364 12.5303C4.36364 12.791 4.46215 13.0411 4.63751 13.2255C4.81287 13.4098 5.05071 13.5134 5.2987 13.5134H11.5325C11.7805 13.5134 12.0183 13.4098 12.1937 13.2255C12.369 13.0411 12.4675 12.791 12.4675 12.5303ZM12.7792 15.4797C13.0272 15.4797 13.2651 15.5832 13.4404 15.7676C13.6158 15.952 13.7143 16.202 13.7143 16.4628C13.7143 16.7235 13.6158 16.9736 13.4404 17.1579C13.2651 17.3423 13.0272 17.4459 12.7792 17.4459H5.2987C5.05071 17.4459 4.81287 17.3423 4.63751 17.1579C4.46215 16.9736 4.36364 16.7235 4.36364 16.4628C4.36364 16.202 4.46215 15.952 4.63751 15.7676C4.81287 15.5832 5.05071 15.4797 5.2987 15.4797H12.7792Z" fill="#1E1E72"/>
</svg>
